<svg xmlns="http://www.w3.org/2000/svg" viewBox="0 0 512 512" fill="none">
  <!-- CPU Body -->
  <rect x="64" y="64" width="384" height="384" rx="40" fill="#2563EB" />
  <rect x="100" y="100" width="312" height="312" rx="20" fill="#1E40AF" />
  
  <!-- Pins (Top) -->
  <path d="M128 32V64" stroke="#2563EB" stroke-width="24" stroke-linecap="round"/>
  <path d="M192 32V64" stroke="#2563EB" stroke-width="24" stroke-linecap="round"/>
  <path d="M256 32V64" stroke="#2563EB" stroke-width="24" stroke-linecap="round"/>
  <path d="M320 32V64" stroke="#2563EB" stroke-width="24" stroke-linecap="round"/>
  <path d="M384 32V64" stroke="#2563EB" stroke-width="24" stroke-linecap="round"/>
  
  <!-- Pins (Bottom) -->
  <path d="M128 448V480" stroke="#2563EB" stroke-width="24" stroke-linecap="round"/>
  <path d="M192 448V480" stroke="#2563EB" stroke-width="24" stroke-linecap="round"/>
  <path d="M256 448V480" stroke="#2563EB" stroke-width="24" stroke-linecap="round"/>
  <path d="M320 448V480" stroke="#2563EB" stroke-width="24" stroke-linecap="round"/>
  <path d="M384 448V480" stroke="#2563EB" stroke-width="24" stroke-linecap="round"/>

  <!-- Pins (Left) -->
  <path d="M32 128H64" stroke="#2563EB" stroke-width="24" stroke-linecap="round"/>
  <path d="M32 192H64" stroke="#2563EB" stroke-width="24" stroke-linecap="round"/>
  <path d="M32 256H64" stroke="#2563EB" stroke-width="24" stroke-linecap="round"/>
  <path d="M32 320H64" stroke="#2563EB" stroke-width="24" stroke-linecap="round"/>
  <path d="M32 384H64" stroke="#2563EB" stroke-width="24" stroke-linecap="round"/>

  <!-- Pins (Right) -->
  <path d="M448 128H480" stroke="#2563EB" stroke-width="24" stroke-linecap="round"/>
  <path d="M448 192H480" stroke="#2563EB" stroke-width="24" stroke-linecap="round"/>
  <path d="M448 256H480" stroke="#2563EB" stroke-width="24" stroke-linecap="round"/>
  <path d="M448 320H480" stroke="#2563EB" stroke-width="24" stroke-linecap="round"/>
  <path d="M448 384H480" stroke="#2563EB" stroke-width="24" stroke-linecap="round"/>

  <!-- Inner Gantt Chart / Activity -->
  <rect x="130" y="150" width="80" height="40" rx="8" fill="#60A5FA"/>
  <rect x="230" y="150" width="150" height="40" rx="8" fill="#93C5FD"/>
  
  <rect x="130" y="210" width="120" height="40" rx="8" fill="#BFDBFE"/>
  <rect x="270" y="210" width="110" height="40" rx="8" fill="#60A5FA"/>
  
  <rect x="130" y="270" width="60" height="40" rx="8" fill="#93C5FD"/>
  <rect x="210" y="270" width="170" height="40" rx="8" fill="#BFDBFE"/>
  
  <!-- Pulse Line at Bottom of Screen -->
  <path d="M130 350 H180 L200 320 L220 380 L240 350 H380" stroke="white" stroke-width="4" stroke-linecap="round" stroke-linejoin="round" opacity="0.8"/>
</svg>
